<svg width="120" height="60" viewBox="0 0 120 60" fill="none" xmlns="http://www.w3.org/2000/svg">
<path d="M53.8637 30.4371C53.8637 29.2768 53.8574 28.1347 53.686 27.1272H32.9318V37.2017H39.0945C39.0945 38.2091 36.2459 40.2795 31.972 40.2795C27.2705 40.2795 21.9475 36.5501 21.842 30.5418C21.7311 24.326 27.0612 20.2599 31.972 20.4373C35.9608 20.5811 37.4745 21.7351 39.7088 23.9438L52.9915 23.953C52.6054 22.4568 51.6501 20.1943 50.0147 17.8555L49.5907 17.2694C46.3208 12.8783 40.6388 8.41987 31.8204 8.40986C21.4469 8.3953 13.4412 15.3919 10.801 23.9584L10.708 24.2696C10.1515 26.2354 9.8691 28.2699 9.86914 30.3143C9.88374 32.2451 10.134 34.1668 10.6142 36.0359C12.2623 42.3044 16.5975 47.4527 22.3056 50.2193L22.4446 50.283C22.4743 50.2985 22.5041 50.3103 22.5312 50.324C25.4123 51.6463 28.647 52.3807 32.0928 52.4098C35.5479 52.3876 38.9495 51.5471 42.0237 49.956C45.0979 48.3648 47.7587 46.0675 49.7919 43.2491C49.8821 43.1353 53.8691 37.3018 53.8691 30.4372L53.8637 30.4371Z" fill="#0A71FF"/>
<path d="M62.3049 51.959C62.0775 51.3699 60.8925 45.3026 60.4206 42.3115C60.2171 41.0221 59.6749 38.182 59.2155 36C58.7561 33.818 58.2068 30.8967 57.9948 29.5082C57.7827 28.1197 57.3439 25.8475 57.0195 24.459C56.6951 23.0705 56.2046 20.5549 55.9296 18.8689C55.6545 17.1828 55.0784 14.1983 54.6493 12.2367C54.2202 10.275 53.8691 8.61151 53.8691 8.53995C53.8691 8.46839 55.9805 8.40984 58.561 8.40984H63.2528L63.6674 10.8443C63.8955 12.1832 64.5655 16.0377 65.1564 19.4098C65.7473 22.782 66.3332 26.4336 66.4585 27.5246C66.5838 28.6156 66.7756 29.7516 66.8848 30.0492C67.0613 30.5301 67.1208 30.5301 67.4206 30.0492C67.6061 29.7516 67.8852 28.7779 68.0409 27.8852C68.1966 26.9926 68.7832 24.3148 69.3445 21.9344C69.9057 19.5541 70.5219 16.7139 70.7136 15.623C70.9054 14.532 71.2542 12.909 71.4887 12.0164C71.7232 11.1238 72.0219 9.94713 72.1523 9.40164L72.3895 8.40984H76.0496H79.7098L80.3248 10.8443C80.9738 13.4126 81.3646 15.0912 83.5207 24.5686C84.2565 27.8026 84.9861 30.237 85.1421 29.9784C85.2981 29.7198 85.6447 28.1287 85.9123 26.4426C86.4387 23.1262 87.0955 19.2918 88.2752 12.6475L89.0276 8.40984H93.4484H97.8691V9.86314C97.8691 10.6625 97.23 14.4358 96.4488 18.2484C94.1476 29.4794 92.8357 36.2153 92.4999 38.5246C92.3268 39.7148 91.8877 42.068 91.5242 43.7541C91.1607 45.4402 90.6439 48.0775 90.3759 49.6148L89.8886 52.4098H85.2512C80.7786 52.4098 80.6063 52.381 80.403 51.5984C80.2871 51.152 79.8375 49.2451 79.4039 47.3607C76.8564 36.2901 76.2917 34.0791 76.0454 34.2126C75.8952 34.294 75.4534 35.7844 75.0636 37.5246C74.6738 39.2648 73.8166 42.8853 73.1587 45.5702C72.5009 48.2551 71.9626 50.8924 71.9626 51.4308V52.4098H67.2207C63.7941 52.4098 62.4306 52.2848 62.3049 51.959Z" fill="#0A71FF"/>
</svg>
